<svg width="105" height="105" viewBox="0 0 105 105" fill="none" xmlns="http://www.w3.org/2000/svg">
<g id="fi_3135715" clip-path="url(#clip0_10_2677)">
<g id="Group">
<g id="Group_2">
<g id="Group_3">
<path id="Vector" d="M52.5051 99.1212L73.306 93.8683C85.179 84.0094 92.7415 69.1388 92.7415 52.5002C92.7415 26.8359 74.7538 5.37301 50.698 0.0305176C22.5375 0.980234 0 24.1081 0 52.5C0 67.0835 5.94726 80.277 15.5474 89.7906L52.5051 99.1212Z" fill="#CBE2FF"/>
</g>
<g id="Group_4">
<path id="Vector_2" d="M91.6523 52.5C91.6523 69.7091 83.3711 84.9825 70.5775 94.5572L89.451 89.791C99.0517 80.2774 105 67.0839 105 52.5C105 23.505 81.495 0 52.5 0C50.2392 0 48.0117 0.143145 45.8262 0.42041C71.6699 3.6992 91.6523 25.766 91.6523 52.5Z" fill="#BED8FB"/>
</g>
<g id="Group_5">
<g id="Group_6">
<g id="Group_7">
<path id="Vector_3" d="M65.5472 19.8827C65.5472 17.2013 63.3736 15.0277 60.6922 15.0277H43.9615C37.7905 15.0277 32.7878 20.0304 32.7878 26.2014V38.6072H72.2057V26.3773C72.2057 23.696 70.0321 21.5223 67.3507 21.5223H67.187C66.2814 21.5223 65.5472 20.7884 65.5472 19.8827Z" fill="#365E7D"/>
<path id="Vector_4" d="M67.3508 21.5223H67.1872C66.2815 21.5223 65.5474 20.7881 65.5474 19.8825C65.5474 17.2011 63.3737 15.0275 60.6923 15.0275H58.8579V38.6069H72.2056V26.3771C72.2058 23.6961 70.032 21.5223 67.3508 21.5223Z" fill="#2B4D66"/>
<path id="Vector_5" d="M87.1675 76.3618C85.8839 75.094 84.2962 74.1135 82.4937 73.543L68.1606 69.0051L52.5033 68.4548L36.8394 69.0051L22.5063 73.543C17.6575 75.0782 14.3621 79.5781 14.3621 84.6642V88.58C23.5473 98.2859 36.3979 104.487 50.6984 104.97C66.7208 101.411 80.051 90.7013 87.1675 76.3618Z" fill="#4A80AA"/>
<path id="Vector_6" d="M90.6379 88.5798V84.664C90.6379 81.0678 88.9891 77.7662 86.3097 75.5969C78.6991 91.1062 63.6646 102.312 45.8384 104.578C47.9901 104.85 50.1815 104.996 52.4062 105C54.5437 104.997 56.653 104.873 58.7275 104.634C71.2437 103.155 82.411 97.2733 90.6379 88.5798Z" fill="#407093"/>
<path id="Vector_7" d="M53.6888 104.214C56.8652 97.9077 65.1366 80.0011 62.778 68.8157L52.5034 64.8169L42.2192 68.8159C39.7878 80.3464 48.6525 99.0192 51.5873 104.764C52.2932 104.595 52.994 104.411 53.6888 104.214Z" fill="#E4F6FF"/>
<path id="Vector_8" d="M59.103 99.2145L54.937 82.8253H50.0629L45.9072 99.1698L51.0461 104.891C52.3506 104.592 53.637 104.246 54.9036 103.854L59.103 99.2145Z" fill="#E28086"/>
<path id="Vector_9" d="M51.1264 104.981C51.5519 104.992 51.9783 104.999 52.4063 105C52.9016 104.999 53.3952 104.991 53.8874 104.977L56.5343 102.053C54.4509 102.784 52.3077 103.387 50.1135 103.853L51.1264 104.981Z" fill="#DD636E"/>
<g id="Group_8">
<g id="Group_9">
<g id="Group_10">
<g id="Group_11">
<g id="Group_12">
<g id="Group_13">
<g id="Group_14">
<g id="Group_15">
<path id="Vector_10" d="M61.272 67.3031V58.061H43.7214V67.3031C43.7214 72.1495 52.4967 77.4434 52.4967 77.4434C52.4967 77.4434 61.272 72.1495 61.272 67.3031Z" fill="#FFDDCE"/>
</g>
</g>
</g>
</g>
</g>
</g>
</g>
<path id="Vector_11" d="M72.2057 36.9792H68.8508C66.985 36.9792 65.4726 35.4668 65.4726 33.601V31.7522C65.4726 29.3218 63.0947 27.6034 60.7872 28.3661C55.4053 30.145 49.5942 30.1454 44.2121 28.3674L44.2058 28.3653C41.8982 27.603 39.5208 29.3214 39.5208 31.7516V33.6012C39.5208 35.467 38.0083 36.9794 36.1425 36.9794H32.7878V42.5038C32.7878 43.9154 33.9322 45.0599 35.3439 45.0599C35.7894 45.0599 36.1517 45.4087 36.1798 45.8533C36.7188 54.3985 43.8159 61.1632 52.4969 61.1632C61.1778 61.1632 68.275 54.3985 68.8139 45.8533C68.842 45.4089 69.2044 45.0599 69.6498 45.0599C71.0614 45.0599 72.2059 43.9156 72.2059 42.5038V36.9792H72.2057Z" fill="#FFDDCE"/>
<path id="Vector_12" d="M68.8508 36.9792C66.985 36.9792 65.4725 35.4667 65.4725 33.6009V31.7521C65.4725 29.3218 63.0946 27.6034 60.7871 28.3661C60.1497 28.5767 59.506 28.7605 58.8579 28.9212V47.1674C58.7681 53.104 55.5151 58.2708 50.7112 61.0631C51.2979 61.1269 51.893 61.1628 52.4966 61.1628C61.1775 61.1628 68.2747 54.3981 68.8136 45.8529C68.8417 45.4085 69.2041 45.0594 69.6495 45.0594C71.0611 45.0594 72.2056 43.9151 72.2056 42.5034V36.979L68.8508 36.9792Z" fill="#FFCBBE"/>
</g>
<g id="Group_16">
<path id="Vector_13" d="M43.7214 64.8169L36.8394 70.4088L44.0565 79.3323C44.9344 80.1871 46.3162 80.2396 47.2567 79.4541L52.6841 74.9205L43.7214 64.8169Z" fill="#F4FBFF"/>
<path id="Vector_14" d="M61.2752 64.8169L52.6841 74.9205L57.7852 79.2821C58.7197 80.0811 60.1081 80.0409 60.9949 79.1892L68.1603 70.4088L61.2752 64.8169Z" fill="#F4FBFF"/>
</g>
</g>
<path id="Vector_15" d="M43.7214 64.8169L33.6201 69.7796C32.851 70.1573 32.5422 71.0929 32.9349 71.8544L34.9139 75.6914C35.4268 76.6856 35.2375 77.8972 34.4459 78.6876C34.0384 79.0942 33.5971 79.5347 33.2146 79.9166C32.5301 80.5999 32.2842 81.6095 32.5856 82.5287C34.975 89.8124 46.4746 100.95 50.8265 104.98C51.1192 104.988 51.4124 104.993 51.7063 104.997C48.5504 98.858 37.3668 75.5361 43.7214 64.8169Z" fill="#365E7D"/>
<path id="Vector_16" d="M70.5507 78.6874C69.7589 77.897 69.5698 76.6854 70.0827 75.6912L72.0617 71.8542C72.4544 71.0927 72.1456 70.1571 71.3766 69.7794L61.2752 64.8169C67.6281 75.5333 56.4524 98.8453 53.293 104.992C53.5899 104.987 53.8863 104.979 54.182 104.969C58.543 100.93 70.0239 89.8059 72.411 82.5289C72.7124 81.6097 72.4665 80.6001 71.782 79.9168C71.3995 79.5347 70.9582 79.094 70.5507 78.6874Z" fill="#365E7D"/>
<path id="Vector_17" d="M52.6842 74.9205L47.3398 79.3839L50.0629 82.8253H54.937L57.6602 79.1808L52.6842 74.9205Z" fill="#DD636E"/>
</g>
</g>
</g>
</g>
</g>
<defs>
<clipPath id="clip0_10_2677">
<rect width="105" height="105" fill="white"/>
</clipPath>
</defs>
</svg>
