<svg width="30" height="31" viewBox="0 0 30 31" fill="none" xmlns="http://www.w3.org/2000/svg">
<g id="ion:logo-youtube" clip-path="url(#clip0_2_3353)">
<path id="Vector" d="M29.8032 9.25063C29.8032 6.61392 27.8638 4.49282 25.4673 4.49282C22.2212 4.34106 18.9107 4.28247 15.5275 4.28247H14.4728C11.0978 4.28247 7.78136 4.34106 4.53527 4.49341C2.14464 4.49341 0.20519 6.62622 0.20519 9.26294C0.0587059 11.3483 -0.00340345 13.4342 0.000112173 15.5202C-0.0057472 17.6061 0.0606591 19.694 0.199331 21.7838C0.199331 24.4206 2.13878 26.5592 4.52941 26.5592C7.93957 26.7174 11.4376 26.7877 14.9943 26.7819C18.5568 26.7936 22.045 26.7194 25.4591 26.5592C27.8556 26.5592 29.795 24.4206 29.795 21.7838C29.9357 19.692 30.0001 17.6061 29.9943 15.5143C30.0075 13.4284 29.9439 11.3405 29.8032 9.25063ZM12.129 21.2682V9.75454L20.6251 15.5084L12.129 21.2682Z" fill="#FF0000"/>
</g>
<defs>
<clipPath id="clip0_2_3353">
<rect width="30" height="30" fill="white" transform="translate(0 0.532471)"/>
</clipPath>
</defs>
</svg>
