<svg width="33" height="32" viewBox="0 0 33 32" fill="none" xmlns="http://www.w3.org/2000/svg">
<g id="fluent-emoji-high-contrast:japanese-symbol-for-beginner">
<path id="Vector" d="M6.749 1.20423C5.762 0.636235 4.5 1.34023 4.5 2.50123L4.51 23.3012C4.51 24.0172 4.89 24.6762 5.508 25.0362L5.513 25.0382L15.393 30.6982L15.399 30.7022C16.089 31.0922 16.936 31.0982 17.629 30.6972H17.631L27.497 25.0382L27.502 25.0352C27.806 24.8593 28.0582 24.6064 28.2334 24.302C28.4086 23.9976 28.5005 23.6524 28.5 23.3012V2.50023C28.5 1.34023 27.238 0.635235 26.251 1.20323L16.5 6.83624L6.75 1.20523L6.749 1.20423ZM6.51 23.3002L6.5 3.37023L16.5 9.14623L16.51 28.9962C16.4656 28.9941 16.4222 28.9822 16.383 28.9612L16.381 28.9602L6.511 23.3062L6.51 23.3002Z" fill="#50618A"/>
</g>
</svg>
