<svg width="25" height="24" viewBox="0 0 25 24" fill="none" xmlns="http://www.w3.org/2000/svg">
<g id="carbon:home">
<path id="Vector" d="M12.959 1.66059C12.8259 1.55684 12.662 1.50049 12.4932 1.50049C12.3245 1.50049 12.1606 1.55684 12.0275 1.66059L1.25 10.0643L2.18225 11.2433L3.5 10.2158V19.5001C3.50079 19.8977 3.65908 20.2787 3.94022 20.5599C4.22135 20.841 4.60242 20.9993 5 21.0001H20C20.3976 20.9993 20.7787 20.841 21.0598 20.5599C21.3409 20.2787 21.4992 19.8977 21.5 19.5001V10.2226L22.8177 11.2501L23.75 10.0711L12.959 1.66059ZM14 19.5001H11V13.5001H14V19.5001ZM15.5 19.5001V13.5001C15.5 13.1023 15.342 12.7207 15.0607 12.4394C14.7794 12.1581 14.3978 12.0001 14 12.0001H11C10.6022 12.0001 10.2206 12.1581 9.93934 12.4394C9.65804 12.7207 9.5 13.1023 9.5 13.5001V19.5001H5V9.04659L12.5 3.20409L20 9.05409V19.5001H15.5Z" fill="#DD5B5B"/>
</g>
</svg>
