<svg width="20" height="21" viewBox="0 0 20 21" fill="none" xmlns="http://www.w3.org/2000/svg">
<g id="Component 6">
<path id="Vector 40" d="M5.96829 8.31641H3.85718C3.30489 8.31641 2.85718 8.76413 2.85718 9.31641V14.7706C2.85718 15.3229 3.30489 15.7706 3.85718 15.7706H12.0794C12.6317 15.7706 13.0794 15.3229 13.0794 14.7706V12.7486M5.96829 8.31641V6.29443C5.96829 5.74215 6.416 5.29443 6.96829 5.29443H15.1905C15.7428 5.29443 16.1905 5.74215 16.1905 6.29443V11.7486C16.1905 12.3009 15.7428 12.7486 15.1905 12.7486H13.0794M5.96829 8.31641V11.7486C5.96829 12.3009 6.416 12.7486 6.96829 12.7486H13.0794" stroke="#757575"/>
</g>
</svg>
