<svg width="74" height="74" viewBox="0 0 74 74" fill="none" xmlns="http://www.w3.org/2000/svg">
<g id="fi_6103968">
<g id="02-Email Marketing">
<path id="Vector" d="M65.9065 70.3774H8.09399C6.86737 70.3774 5.69098 69.8968 4.82363 69.0411C3.95627 68.1855 3.46899 67.025 3.46899 65.8149V33.6946C3.469 33.0365 3.61334 32.3861 3.89213 31.7882C4.17091 31.1903 4.57753 30.6589 5.08408 30.2306L34.9661 4.9635C35.5326 4.48449 36.2541 4.22119 37.0002 4.22119C37.7464 4.22119 38.4679 4.48449 39.0344 4.9635L68.9164 30.2305C69.423 30.6589 69.8296 31.1902 70.1084 31.7882C70.3872 32.3861 70.5315 33.0365 70.5315 33.6946V65.8149C70.5315 67.025 70.0442 68.1855 69.1769 69.0411C68.3095 69.8968 67.1331 70.3774 65.9065 70.3774Z" fill="#FFA726"/>
<path id="Vector_2" d="M68.9125 30.2274C69.4576 30.6828 69.8822 31.2622 70.1497 31.9156L39.035 58.2298C38.4679 58.7083 37.7463 58.9712 37 58.9712C36.2538 58.9712 35.5321 58.7083 34.965 58.2298L3.85034 31.9156C4.1178 31.2622 4.54241 30.6828 5.08753 30.2274L6.16284 29.3149L34.965 53.6673C35.5321 54.1458 36.2538 54.4087 37 54.4087C37.7463 54.4087 38.4679 54.1458 39.035 53.6673L67.8372 29.3149L68.9125 30.2274Z" fill="#FB8C00"/>
<path id="Vector_3" d="M70.5313 33.6949V65.8149C70.5314 66.4141 70.4119 67.0075 70.1796 67.5611C69.9472 68.1147 69.6065 68.6178 69.177 69.0415C68.7475 69.4652 68.2376 69.8012 67.6764 70.0304C67.1152 70.2597 66.5137 70.3776 65.9063 70.3774H8.09377C7.48636 70.3776 6.88487 70.2597 6.32366 70.0304C5.76246 69.8012 5.25254 69.4651 4.82303 69.0414C4.39353 68.6177 4.05286 68.1147 3.82049 67.5611C3.58812 67.0075 3.4686 66.4141 3.46877 65.8149V33.6949C3.46691 33.0818 3.59696 32.4753 3.85033 31.9155L34.965 58.2297C35.5321 58.7082 36.2538 58.9712 37 58.9712C37.7462 58.9712 38.4679 58.7082 39.035 58.2297L70.1497 31.9155C70.403 32.4754 70.5331 33.0818 70.5313 33.6949Z" fill="#FFB74D"/>
<path id="Vector_4" d="M70.1497 31.9155L64.75 36.4822V62.393C64.75 63.6031 64.2627 64.7636 63.3954 65.6192C62.528 66.4748 61.3516 66.9555 60.125 66.9555H8.09375C6.86712 66.9555 5.69074 66.4748 4.82338 65.6192C3.95603 64.7636 3.46875 63.6031 3.46875 62.393V65.8149C3.46858 66.4141 3.5881 67.0075 3.82047 67.5611C4.05284 68.1147 4.39351 68.6177 4.82301 69.0414C5.25252 69.4651 5.76244 69.8012 6.32364 70.0304C6.88485 70.2597 7.48634 70.3776 8.09375 70.3774H65.9063C66.5137 70.3776 67.1152 70.2597 67.6764 70.0304C68.2376 69.8012 68.7475 69.4652 69.177 69.0415C69.6065 68.6178 69.9472 68.1147 70.1796 67.5611C70.4119 67.0075 70.5314 66.4141 70.5313 65.8149V33.6949C70.5331 33.0818 70.403 32.4754 70.1497 31.9155Z" fill="#FFA726"/>
<path id="Vector_5" d="M69.0629 69.1456C68.2071 69.9362 67.0788 70.3765 65.9063 70.3774H8.09382C6.92134 70.3766 5.79301 69.9362 4.93726 69.1456L26.4088 50.9868L34.9651 58.2298C35.5322 58.7083 36.2538 58.9712 37.0001 58.9712C37.7463 58.9712 38.468 58.7083 39.0351 58.2298L47.5913 50.9868L69.0629 69.1456Z" fill="#FFCC80"/>
<path id="Vector_6" d="M62.4375 15.6274V38.4399L39.035 58.2298C38.4679 58.7083 37.7462 58.9712 37 58.9712C36.2538 58.9712 35.5321 58.7083 34.965 58.2298L11.5625 38.4399V15.6274C11.5623 15.0282 11.6819 14.4349 11.9142 13.8813C12.1466 13.3276 12.4873 12.8246 12.9168 12.4009C13.3463 11.9772 13.8562 11.6411 14.4174 11.4119C14.9786 11.1827 15.5801 11.0648 16.1875 11.0649H57.8125C58.4199 11.0648 59.0214 11.1827 59.5826 11.4119C60.1438 11.6411 60.6537 11.9772 61.0833 12.4009C61.5128 12.8246 61.8534 13.3276 62.0858 13.8812C62.3182 14.4349 62.4377 15.0282 62.4375 15.6274Z" fill="#EEEEEE"/>
<path id="Vector_7" d="M57.8125 11.0649H52.0312C52.6387 11.0648 53.2402 11.1827 53.8014 11.4119C54.3626 11.6411 54.8725 11.9772 55.302 12.4009C55.7315 12.8246 56.0722 13.3276 56.3045 13.8812C56.5369 14.4349 56.6564 15.0282 56.6562 15.6274V35.0929C56.6562 36.2446 56.4037 37.3826 55.9159 38.4289C55.4281 39.4752 54.7167 40.4051 53.8304 41.1546L39.035 53.6673C38.4679 54.1458 37.7462 54.4087 37 54.4087C36.2538 54.4087 35.5321 54.1458 34.965 53.6673L11.5625 33.8754V38.4399L34.965 58.2298C35.5321 58.7083 36.2538 58.9712 37 58.9712C37.7462 58.9712 38.4679 58.7083 39.035 58.2298L62.4375 38.4399V15.6274C62.4375 14.4174 61.9502 13.2569 61.0829 12.4013C60.2155 11.5456 59.0391 11.0649 57.8125 11.0649Z" fill="#E0E0E0"/>
<path id="Vector_8" d="M25.437 32.7368H30.062V40.7212C30.062 41.3262 29.8184 41.9065 29.3847 42.3343C28.951 42.7621 28.3628 43.0024 27.7495 43.0024C27.1362 43.0024 26.548 42.7621 26.1143 42.3343C25.6806 41.9065 25.437 41.3262 25.437 40.7212V32.7368Z" fill="#FFA726"/>
<path id="Vector_9" d="M41.6245 25.8931H43.937C44.5503 25.8931 45.1385 26.1334 45.5722 26.5612C46.0059 26.989 46.2495 27.5693 46.2495 28.1743C46.2495 28.7793 46.0059 29.3596 45.5722 29.7874C45.1385 30.2152 44.5503 30.4556 43.937 30.4556H41.6245V25.8931Z" fill="#42A5F5"/>
<path id="Vector_10" d="M53.187 29.3149H50.8745C50.5679 29.3149 50.2738 29.1948 50.0569 28.9809C49.8401 28.767 49.7183 28.4768 49.7183 28.1743C49.7183 27.8718 49.8401 27.5817 50.0569 27.3678C50.2738 27.1539 50.5679 27.0337 50.8745 27.0337H53.187C53.4937 27.0337 53.7878 27.1539 54.0046 27.3678C54.2214 27.5817 54.3433 27.8718 54.3433 28.1743C54.3433 28.4768 54.2214 28.767 54.0046 28.9809C53.7878 29.1948 53.4937 29.3149 53.187 29.3149Z" fill="#FFB74D"/>
<path id="Vector_11" d="M53.186 35.0182C53.0069 35.0182 52.8302 34.977 52.67 34.8979L50.3575 33.7573C50.0832 33.622 49.8746 33.3847 49.7776 33.0977C49.6806 32.8107 49.7032 32.4974 49.8403 32.2268C49.9775 31.9562 50.218 31.7504 50.509 31.6547C50.7999 31.5591 51.1175 31.5813 51.3918 31.7166L53.7043 32.8573C53.9374 32.9722 54.1244 33.1614 54.2348 33.3943C54.3452 33.6272 54.3726 33.89 54.3126 34.1402C54.2526 34.3904 54.1087 34.6132 53.9042 34.7726C53.6997 34.932 53.4466 35.0185 53.186 35.0182Z" fill="#FFB74D"/>
<path id="Vector_12" d="M50.8757 24.7526C50.6151 24.7529 50.362 24.6663 50.1575 24.507C49.953 24.3476 49.8091 24.1248 49.7491 23.8746C49.6891 23.6244 49.7165 23.3615 49.8269 23.1287C49.9374 22.8958 50.1243 22.7065 50.3574 22.5916L52.6699 21.451C52.9442 21.3157 53.2618 21.2934 53.5527 21.3891C53.8437 21.4848 54.0842 21.6906 54.2214 21.9612C54.3585 22.2318 54.3811 22.545 54.2841 22.8321C54.1871 23.1191 53.9785 23.3563 53.7042 23.4916L51.3917 24.6323C51.2315 24.7114 51.0548 24.7526 50.8757 24.7526Z" fill="#FFB74D"/>
<path id="Vector_13" d="M41.625 17.9087V38.4399C41.625 38.4399 38.1562 33.8774 30.0625 33.8774V22.4712C38.1562 22.4712 41.625 17.9087 41.625 17.9087Z" fill="#FFA726"/>
<path id="Vector_14" d="M30.062 22.4712V33.8774H26.5933C25.06 33.8774 23.5895 33.2766 22.5053 32.207C21.4211 31.1375 20.812 29.6869 20.812 28.1743C20.812 26.6618 21.4211 25.2111 22.5053 24.1416C23.5895 23.0721 25.06 22.4712 26.5933 22.4712H30.062Z" fill="#42A5F5"/>
<path id="Vector_15" d="M25.4375 36.1587V40.7212C25.4375 41.3262 25.6811 41.9065 26.1148 42.3343C26.5485 42.7621 27.1367 43.0024 27.75 43.0024V38.4399C27.75 37.8349 27.5064 37.2547 27.0727 36.8269C26.639 36.399 26.0508 36.1587 25.4375 36.1587Z" fill="#FFB74D"/>
<path id="Vector_16" d="M21.6277 25.2998C22.1753 26.1793 22.9426 26.9054 23.8561 27.4087C24.7696 27.912 25.7987 28.1756 26.845 28.1743H30.0624V22.4712H26.5937C25.5876 22.4737 24.5997 22.7361 23.7284 23.2324C22.8571 23.7287 22.1328 24.4415 21.6277 25.2998Z" fill="#64B5F6"/>
<path id="Vector_17" d="M38.1562 24.7524V20.5986C35.6586 21.8781 32.8764 22.5218 30.0625 22.4712V28.1743H34.6875C35.6075 28.1743 36.4898 27.8138 37.1403 27.172C37.7908 26.5303 38.1562 25.6599 38.1562 24.7524Z" fill="#FFB74D"/>
<path id="Vector_18" d="M46.2193 27.8743C46.1473 27.3272 45.8762 26.8246 45.4564 26.4601C45.0366 26.0956 44.4968 25.894 43.9375 25.8931H42.7812C42.7812 26.4981 43.0249 27.0783 43.4586 27.5062C43.8922 27.934 44.4804 28.1743 45.0938 28.1743C45.4889 28.1719 45.8767 28.0686 46.2193 27.8743Z" fill="#64B5F6"/>
<path id="Vector_19" d="M64.003 64.8662C63.5854 65.5067 63.0116 66.0336 62.3341 66.3986C61.6566 66.7636 60.897 66.9551 60.1251 66.9555H8.09382C7.92386 66.948 7.75445 66.9312 7.58641 66.905L4.93726 69.1455C5.79301 69.9361 6.92134 70.3765 8.09382 70.3773H65.9063C67.0788 70.3764 68.2071 69.9361 69.0629 69.1455L64.003 64.8662Z" fill="#FFB74D"/>
</g>
</g>
</svg>
