<svg width="24" height="24" viewBox="0 0 24 24" fill="none" xmlns="http://www.w3.org/2000/svg">
<g id="f7:speaker-1">
<path id="Vector" d="M14.2054 21.2162C14.8881 21.2162 15.3806 20.7139 15.3806 20.041V4.01975C15.3806 3.34689 14.8881 2.78418 14.1849 2.78418C13.6929 2.78418 13.3714 3.02547 12.8293 3.50761L8.10814 7.69604C8.04814 7.75604 7.95771 7.78647 7.857 7.78647H4.87414C3.44743 7.78647 2.74414 8.49961 2.74414 10.0163V14.0145C2.74414 15.5316 3.44743 16.2443 4.87414 16.2443H7.857C7.95771 16.2443 8.04771 16.2743 8.10814 16.3348L12.8293 20.5639C13.3213 21.0053 13.713 21.2166 14.205 21.2166M13.6221 19.0973C13.572 19.0973 13.5116 19.0673 13.4516 19.0069L9.00171 14.9989C8.76085 14.7778 8.55985 14.7276 8.28857 14.7276H4.94357C4.55185 14.7276 4.36071 14.5468 4.36071 14.1448V9.88604C4.36071 9.49432 4.55185 9.30361 4.94357 9.30361H8.28857C8.55985 9.30361 8.75057 9.26332 9.00171 9.03232L13.4516 4.99432C13.5017 4.95447 13.5621 4.91418 13.6221 4.91418C13.7126 4.91418 13.7627 4.97418 13.7627 5.05475V18.9465C13.7627 19.0369 13.7126 19.0973 13.6221 19.0973ZM18.8756 16.4556C19.2171 16.6965 19.7091 16.6159 20.0006 16.2242C20.784 15.1699 21.2563 13.6228 21.2563 12.0456C21.2563 10.4685 20.7741 8.93204 20.0006 7.85718C19.7091 7.46547 19.227 7.38489 18.8756 7.62575C18.4337 7.91718 18.3836 8.42975 18.705 8.87161C19.2874 9.65504 19.6393 10.8503 19.6393 12.0456C19.6393 13.2413 19.2673 14.4366 18.6947 15.2299C18.3934 15.6619 18.4436 16.1539 18.8756 16.4556Z" fill="#DD5B5B"/>
</g>
</svg>
