<svg width="40" height="40" viewBox="0 0 40 40" fill="none" xmlns="http://www.w3.org/2000/svg">
<g id="jam:alert">
<path id="Vector" d="M19.9999 36.6666C10.7949 36.6666 3.33325 29.2049 3.33325 19.9999C3.33325 10.7949 10.7949 3.33325 19.9999 3.33325C29.2049 3.33325 36.6666 10.7949 36.6666 19.9999C36.6666 29.2049 29.2049 36.6666 19.9999 36.6666ZM19.9999 33.3333C23.5361 33.3333 26.9275 31.9285 29.428 29.428C31.9285 26.9275 33.3333 23.5361 33.3333 19.9999C33.3333 16.4637 31.9285 13.0723 29.428 10.5718C26.9275 8.07134 23.5361 6.66659 19.9999 6.66659C16.4637 6.66659 13.0723 8.07134 10.5718 10.5718C8.07134 13.0723 6.66659 16.4637 6.66659 19.9999C6.66659 23.5361 8.07134 26.9275 10.5718 29.428C13.0723 31.9285 16.4637 33.3333 19.9999 33.3333ZM19.9999 11.6666C20.4419 11.6666 20.8659 11.8422 21.1784 12.1547C21.491 12.4673 21.6666 12.8912 21.6666 13.3333V21.6666C21.6666 22.1086 21.491 22.5325 21.1784 22.8451C20.8659 23.1577 20.4419 23.3333 19.9999 23.3333C19.5579 23.3333 19.134 23.1577 18.8214 22.8451C18.5088 22.5325 18.3333 22.1086 18.3333 21.6666V13.3333C18.3333 12.8912 18.5088 12.4673 18.8214 12.1547C19.134 11.8422 19.5579 11.6666 19.9999 11.6666ZM19.9999 28.3333C19.5579 28.3333 19.134 28.1577 18.8214 27.8451C18.5088 27.5325 18.3333 27.1086 18.3333 26.6666C18.3333 26.2246 18.5088 25.8006 18.8214 25.4881C19.134 25.1755 19.5579 24.9999 19.9999 24.9999C20.4419 24.9999 20.8659 25.1755 21.1784 25.4881C21.491 25.8006 21.6666 26.2246 21.6666 26.6666C21.6666 27.1086 21.491 27.5325 21.1784 27.8451C20.8659 28.1577 20.4419 28.3333 19.9999 28.3333Z" fill="#EFB157"/>
</g>
</svg>
