<svg width="20" height="24" viewBox="0 0 20 24" fill="none" xmlns="http://www.w3.org/2000/svg">
<g id="Group 4">
<path id="Vector" d="M9.95625 24C9.9342 24 9.91399 23.9978 9.89195 23.9934L0.744614 22.053C0.544361 22.011 0.412084 21.7815 0.446991 21.5408C0.481897 21.3002 0.67296 21.1413 0.873213 21.1832L10.0206 23.1237C10.2208 23.1656 10.3531 23.3952 10.3182 23.6358C10.2869 23.8499 10.1308 24 9.95625 24Z" fill="white"/>
<path id="Vector_2" d="M12.793 14.8235C12.7327 14.8235 12.6725 14.8083 12.6157 14.7779L4.85379 10.5114C4.68359 10.4186 4.62686 10.2111 4.72437 10.0508C4.82188 9.88883 5.03818 9.83484 5.20838 9.92763L12.9703 14.1942C13.1405 14.287 13.1972 14.4945 13.0997 14.6548C13.0341 14.7628 12.9154 14.8235 12.793 14.8235Z" fill="white"/>
<path id="Vector_3" d="M19.1509 7.76471C19.0517 7.76471 18.9525 7.7211 18.8846 7.63571L13.2289 0.597331C13.1053 0.442901 13.1244 0.213981 13.2724 0.0849862C13.4204 -0.0440084 13.6397 -0.0240233 13.7633 0.130407L19.419 7.16697C19.5426 7.3214 19.5234 7.55032 19.3755 7.67932C19.311 7.73564 19.231 7.76471 19.1526 7.76471H19.1509Z" fill="white"/>
</g>
</svg>
