<svg width="20" height="24" viewBox="0 0 20 24" fill="none" xmlns="http://www.w3.org/2000/svg">
<g id="Group 3">
<path id="Vector" d="M0.886289 7.76471C0.799276 7.76471 0.710335 7.73745 0.638791 7.67931C0.474432 7.55032 0.453162 7.3214 0.59045 7.16697L6.87475 0.130407C7.01204 -0.0240233 7.25567 -0.0440084 7.42003 0.0849862C7.58439 0.213981 7.60566 0.442901 7.46837 0.597331L1.18408 7.63389C1.10673 7.71928 0.998442 7.76289 0.888225 7.76289L0.886289 7.76471Z" fill="white"/>
<path id="Vector_2" d="M7.20692 14.8235C7.08461 14.8235 6.96584 14.7627 6.90025 14.6547C6.80275 14.4927 6.86124 14.2868 7.02965 14.194L14.7924 9.92728C14.9626 9.83445 15.1789 9.89015 15.2764 10.0505C15.3739 10.2125 15.3154 10.4184 15.147 10.5112L7.3842 14.7779C7.32747 14.8083 7.2672 14.8235 7.20692 14.8235Z" fill="white"/>
<path id="Vector_3" d="M10.0438 24C9.86925 24 9.71309 23.8498 9.68185 23.6355C9.64695 23.3947 9.77922 23.1672 9.97948 23.123L19.1268 21.1832C19.3271 21.1413 19.5163 21.3003 19.553 21.5411C19.5879 21.7819 19.4557 22.0095 19.2554 22.0537L10.1081 23.9934C10.086 23.9978 10.0658 24 10.0438 24Z" fill="white"/>
</g>
</svg>
