<svg width="40" height="40" viewBox="0 0 40 40" fill="none" xmlns="http://www.w3.org/2000/svg">
<g id="mingcute:right-line" clip-path="url(#clip0_52_3312)">
<g id="Group">
<path id="Vector" fill-rule="evenodd" clip-rule="evenodd" d="M26.1781 18.8215C26.4905 19.134 26.6661 19.5579 26.6661 19.9998C26.6661 20.4418 26.4905 20.8656 26.1781 21.1781L16.7498 30.6065C16.596 30.7657 16.4121 30.8926 16.2088 30.98C16.0054 31.0673 15.7867 31.1133 15.5654 31.1152C15.3441 31.1171 15.1247 31.075 14.9198 30.9912C14.715 30.9074 14.5289 30.7836 14.3724 30.6271C14.2159 30.4706 14.0922 30.2846 14.0084 30.0797C13.9246 29.8749 13.8824 29.6554 13.8843 29.4341C13.8863 29.2128 13.9322 28.9941 14.0196 28.7908C14.1069 28.5875 14.2339 28.4036 14.3931 28.2498L22.6431 19.9998L14.3931 11.7498C14.0895 11.4355 13.9215 11.0145 13.9253 10.5775C13.9291 10.1405 14.1044 9.72246 14.4134 9.41345C14.7224 9.10443 15.1404 8.92915 15.5774 8.92536C16.0144 8.92156 16.4354 9.08955 16.7498 9.39315L26.1781 18.8215Z" fill="#50618A"/>
</g>
</g>
<defs>
<clipPath id="clip0_52_3312">
<rect width="40" height="40" fill="white"/>
</clipPath>
</defs>
</svg>
