<svg width="40" height="40" viewBox="0 0 40 40" fill="none" xmlns="http://www.w3.org/2000/svg">
<g id="mingcute:right-line" clip-path="url(#clip0_52_3307)">
<g id="Group">
<path id="Vector" fill-rule="evenodd" clip-rule="evenodd" d="M13.8214 21.1785C13.509 20.866 13.3334 20.4421 13.3334 20.0002C13.3334 19.5582 13.509 19.1344 13.8214 18.8219L23.2498 9.39352C23.4035 9.23434 23.5874 9.10737 23.7907 9.02002C23.9941 8.93267 24.2128 8.8867 24.4341 8.88477C24.6554 8.88285 24.8748 8.92502 25.0797 9.00882C25.2845 9.09262 25.4706 9.21638 25.6271 9.37287C25.7836 9.52936 25.9073 9.71544 25.9911 9.92027C26.0749 10.1251 26.1171 10.3446 26.1152 10.5659C26.1132 10.7872 26.0673 11.0059 25.9799 11.2092C25.8926 11.4125 25.7656 11.5964 25.6064 11.7502L17.3564 20.0002L25.6064 28.2502C25.91 28.5645 26.078 28.9855 26.0742 29.4225C26.0704 29.8595 25.8951 30.2775 25.5861 30.5866C25.2771 30.8956 24.8591 31.0708 24.4221 31.0746C23.9851 31.0784 23.5641 30.9105 23.2498 30.6069L13.8214 21.1785Z" fill="#50618A"/>
</g>
</g>
<defs>
<clipPath id="clip0_52_3307">
<rect width="40" height="40" fill="white" transform="matrix(-1 0 0 -1 40 40)"/>
</clipPath>
</defs>
</svg>
