<svg width="24" height="24" viewBox="0 0 24 24" fill="none" xmlns="http://www.w3.org/2000/svg">
<g id="Allow">
<path id="Vector" d="M17.6829 14.8233C17.7834 14.723 17.8632 14.6039 17.9176 14.4727C17.972 14.3415 18 14.2009 18 14.0589C18 13.9168 17.972 13.7762 17.9176 13.645C17.8632 13.5139 17.7834 13.3947 17.6829 13.2944L12.7056 8.31712C12.6053 8.21659 12.4861 8.13684 12.355 8.08242C12.2238 8.02801 12.0832 8 11.9411 8C11.7991 8 11.6585 8.02801 11.5273 8.08242C11.3961 8.13684 11.277 8.21659 11.1767 8.31712L6.1994 13.2944C6.099 13.3948 6.01937 13.514 5.96503 13.6451C5.9107 13.7763 5.88274 13.9169 5.88274 14.0589C5.88274 14.2008 5.9107 14.3414 5.96503 14.4726C6.01937 14.6038 6.099 14.7229 6.1994 14.8233C6.29979 14.9237 6.41897 15.0034 6.55014 15.0577C6.68131 15.112 6.8219 15.14 6.96388 15.14C7.10585 15.14 7.24644 15.112 7.37761 15.0577C7.50878 15.0034 7.62796 14.9237 7.72836 14.8233L11.9466 10.616L16.1539 14.8233C16.5768 15.2462 17.2708 15.2354 17.6829 14.8233Z" fill="white"/>
</g>
</svg>
