<svg width="65" height="65" viewBox="0 0 65 65" fill="none" xmlns="http://www.w3.org/2000/svg">
<g id="TOP_button" clip-path="url(#clip0_103_1718)">
<g id="Group" filter="url(#filter0_d_103_1718)">
<path id="Vector" d="M32.5001 59.2648C47.2818 59.2648 59.2648 47.2818 59.2648 32.5001C59.2648 17.7183 47.2818 5.73535 32.5001 5.73535C17.7183 5.73535 5.73535 17.7183 5.73535 32.5001C5.73535 47.2818 17.7183 59.2648 32.5001 59.2648Z" fill="white"/>
<g id="Clip path group">
<mask id="mask0_103_1718" style="mask-type:luminance" maskUnits="userSpaceOnUse" x="24" y="14" width="17" height="18">
<g id="clip0_220_2915">
<path id="Vector_2" d="M24.2158 14.6567V31.2827H40.4913V14.6567H24.2158Z" fill="white"/>
</g>
</mask>
<g mask="url(#mask0_103_1718)">
<g id="Group_2">
<path id="Vector_3" d="M24.2158 22.4379L25.1271 23.5148L31.2001 18.1491C31.3403 18.2129 31.3531 18.2192 31.4933 18.2766L31.6462 31.2766H33.0609L33.2139 18.2766C33.3541 18.2129 33.3668 18.2065 33.507 18.1491L39.58 23.5148L40.4913 22.4379L32.3536 14.657L24.2158 22.4379Z" fill="#757575"/>
</g>
</g>
</g>
<path id="Vector_4" d="M20.3395 45.2452V38.9542H18.2085V37.7001H23.9795V38.9542H21.8485V45.2452H20.3395ZM27.8425 45.3879C25.8338 45.3879 24.4676 43.8993 24.4676 41.442C24.4676 38.9848 25.8338 37.5675 27.8425 37.5675C29.8409 37.5675 31.2072 38.995 31.2072 41.442C31.2072 43.8993 29.8409 45.3879 27.8425 45.3879ZM27.8425 44.0828C28.964 44.0828 29.6777 43.053 29.6777 41.442C29.6777 39.831 28.964 38.8624 27.8425 38.8624C26.7107 38.8624 26.0072 39.831 26.0072 41.442C26.0072 43.053 26.7107 44.0828 27.8425 44.0828ZM32.691 45.2452V37.7001H35.1687C36.8306 37.7001 38.1153 38.2812 38.1153 40.0757C38.1153 41.7989 36.8306 42.5636 35.2094 42.5636H34.2V45.2452H32.691ZM34.2 41.3706H35.1075C36.1475 41.3706 36.6471 40.9322 36.6471 40.0757C36.6471 39.1887 36.0965 38.9032 35.0565 38.9032H34.2V41.3706ZM38.9411 42.2169C39.247 41.9722 39.4917 41.7377 39.7975 41.4216C40.2768 40.9322 41.0517 39.882 41.694 39.1479C42.4077 38.3322 43.0603 38.2608 43.8046 38.9848C44.5081 39.6577 45.3136 40.7079 45.9152 41.3706C46.5677 42.0844 47.4446 42.9918 48.4132 43.8585L47.3528 45.082C46.6289 44.3887 45.7622 43.4099 45.1097 42.6452C44.4775 41.9008 43.7128 40.922 43.2438 40.3816C42.8768 39.9942 42.683 40.0452 42.3873 40.4122C41.9795 40.9322 41.2658 41.9416 40.8273 42.5228C40.5928 42.8491 40.3583 43.2161 40.1748 43.4812L38.9411 42.2169Z" fill="#757575"/>
<path id="Vector_5" d="M32.5002 57.353C46.2261 57.353 57.3531 46.2259 57.3531 32.5C57.3531 18.7741 46.2261 7.64709 32.5002 7.64709C18.7743 7.64709 7.64722 18.7741 7.64722 32.5C7.64722 46.2259 18.7743 57.353 32.5002 57.353Z" stroke="#757575" stroke-width="2"/>
</g>
</g>
<defs>
<filter id="filter0_d_103_1718" x="-3.26465" y="-3.26465" width="71.5293" height="71.5294" filterUnits="userSpaceOnUse" color-interpolation-filters="sRGB">
<feFlood flood-opacity="0" result="BackgroundImageFix"/>
<feColorMatrix in="SourceAlpha" type="matrix" values="0 0 0 0 0 0 0 0 0 0 0 0 0 0 0 0 0 0 127 0" result="hardAlpha"/>
<feOffset/>
<feGaussianBlur stdDeviation="4.5"/>
<feComposite in2="hardAlpha" operator="out"/>
<feColorMatrix type="matrix" values="0 0 0 0 0 0 0 0 0 0 0 0 0 0 0 0 0 0 0.35 0"/>
<feBlend mode="normal" in2="BackgroundImageFix" result="effect1_dropShadow_103_1718"/>
<feBlend mode="normal" in="SourceGraphic" in2="effect1_dropShadow_103_1718" result="shape"/>
</filter>
<clipPath id="clip0_103_1718">
<rect width="65" height="65" fill="white"/>
</clipPath>
</defs>
</svg>
